<svg width="25" height="25" viewBox="0 0 25 25" fill="none" xmlns="http://www.w3.org/2000/svg">
    <path fill-rule="evenodd" clip-rule="evenodd" d="M10.8179 10.9315C10.318 10.6316 9.68198 10.9917 9.68198 11.5746V17.9254C9.68198 18.5083 10.318 18.8684 10.8179 18.5685L16.1101 15.3931C16.5956 15.1018 16.5956 14.3982 16.1101 14.1069L10.8179 10.9315Z" fill="#fff" />
    <path fill-rule="evenodd" clip-rule="evenodd"
        d="M7.43198 0.5C3.70406 0.5 0.681976 3.52208 0.681976 7.25V17.75C0.681976 21.478 3.70406 24.5 7.43198 24.5H17.932C21.6599 24.5 24.682 21.478 24.682 17.75V7.25C24.682 3.52208 21.6599 0.5 17.932 0.5H7.43198ZM8.35905 2L10.6091 6.5H15.5987L13.0987 2H8.35905ZM23.182 8V17.75C23.182 20.6495 20.8315 23 17.932 23H7.43198C4.53248 23 2.18198 20.6495 2.18198 17.75V8H23.182ZM14.8146 2L17.3146 6.5H23.1288C22.7649 3.95578 20.5769 2 17.932 2H14.8146ZM8.93198 6.5L6.70682 2.04967C4.39581 2.36897 2.56521 4.19246 2.23514 6.5H8.93198Z"
        fill="#fff" />
</svg>