<svg width="30" height="30" viewBox="0 0 30 30" fill="none" xmlns="http://www.w3.org/2000/svg">
    <path fill-rule="evenodd" clip-rule="evenodd"
        d="M12.7925 13.0178C12.1816 12.6579 11.4042 13.09 11.4042 13.7896V21.4104C11.4042 22.11 12.1816 22.5421 12.7925 22.1821L19.2608 18.3717C19.8543 18.0222 19.8543 17.1778 19.2608 16.8282L12.7925 13.0178ZM8.65424 0.499975C4.09789 0.499975 0.404242 4.12647 0.404242 8.59997V21.2C0.404242 25.6735 4.09789 29.3 8.65424 29.3H21.4876C26.044 29.3 29.7376 25.6735 29.7376 21.2V8.59997C29.7376 4.12647 26.044 0.499975 21.4876 0.499975H8.65424ZM9.78733 2.29998L12.5373 7.69998H18.6357L15.5802 2.29998H9.78733ZM27.9042 9.49998V21.2C27.9042 24.6794 25.0314 27.5 21.4876 27.5H8.65424C5.11042 27.5 2.23757 24.6794 2.23757 21.2V9.49998H27.9042ZM17.6774 2.29998L20.733 7.69998H27.8392C27.3945 4.64691 24.7202 2.29998 21.4876 2.29998H17.6774ZM10.4876 7.69998L7.76793 2.35958C4.94337 2.74274 2.70597 4.93093 2.30256 7.69998H10.4876ZM8.65424 0.499975C4.09789 0.499975 0.404242 4.12647 0.404242 8.59997V21.2C0.404242 25.6735 4.09789 29.3 8.65424 29.3H21.4876C26.044 29.3 29.7376 25.6735 29.7376 21.2V8.59997C29.7376 4.12647 26.044 0.499975 21.4876 0.499975H8.65424Z"
        fill="#262626" />
</svg>